<svg xmlns="http://www.w3.org/2000/svg" width="20.069" height="15.197" viewBox="0 0 20.069 15.197">
  <g id="btn_ic02" transform="translate(-302.723 -197.165)">
    <path id="パス_2584" data-name="パス 2584" d="M326.262,218.838a5.265,5.265,0,0,1,1.237.732l2.025,1.251-.269-2.652a3.553,3.553,0,0,1-.056-.556c.035-.537.672-.946.979-1.356a6.606,6.606,0,0,0-2.718-10.057,11.6,11.6,0,0,0-4.656-.519c-3.118,0-6.742-.554-9.228,1.756a6.606,6.606,0,0,0,2.339,11.12,12.362,12.362,0,0,0,4.032.356h4.472c.146,0,.291,0,.437,0A6.081,6.081,0,0,1,326.262,218.838Zm-8.675-5.923a.769.769,0,1,1,.769-.769A.769.769,0,0,1,317.586,212.915Zm3.92,0a.769.769,0,1,1,.769-.769A.769.769,0,0,1,321.507,212.915Zm3.152-.769a.769.769,0,1,1,.769.769A.769.769,0,0,1,324.658,212.146Z" transform="translate(-8.71 -8.458)" fill="#fff"/>
    <path id="パス_2586" data-name="パス 2586" d="M351.247,247.348a.769.769,0,1,0,.769.769A.769.769,0,0,0,351.247,247.348Z" transform="translate(-42.37 -44.429)" fill="#ff8e3f"/>
    <path id="パス_2587" data-name="パス 2587" d="M379.675,247.348a.769.769,0,1,0,.769.769A.769.769,0,0,0,379.675,247.348Z" transform="translate(-66.878 -44.429)" fill="#ff8e3f"/>
    <path id="パス_2588" data-name="パス 2588" d="M408.872,248.117a.769.769,0,1,0-.769.769A.769.769,0,0,0,408.872,248.117Z" transform="translate(-91.387 -44.429)" fill="#ff8e3f"/>
  </g>
</svg>
